<svg width="89" height="90" viewBox="0 0 89 90" fill="none" xmlns="http://www.w3.org/2000/svg">
<g filter="url(#filter0_d_316_2309)">
<path d="M29.7341 58.3119C29.7341 58.56 29.4605 58.7586 29.1155 58.7586C28.723 58.7958 28.4494 58.5973 28.4494 58.3119C28.4494 58.0638 28.723 57.8653 29.0679 57.8653C29.4248 57.828 29.7341 58.0266 29.7341 58.3119ZM26.0347 57.7536C25.9514 58.0017 26.1893 58.2871 26.5462 58.3615C26.8554 58.4856 27.2123 58.3615 27.2837 58.1134C27.355 57.8653 27.129 57.5799 26.7722 57.4683C26.4629 57.3814 26.1179 57.5055 26.0347 57.7536ZM31.2923 57.5427C30.9474 57.6295 30.7095 57.8653 30.7452 58.1506C30.7808 58.3988 31.0901 58.56 31.447 58.4732C31.7919 58.3864 32.0298 58.1506 31.9942 57.9025C31.9585 57.6668 31.6373 57.5055 31.2923 57.5427ZM39.1194 10C22.6208 10 10 23.0643 10 40.2725C10 54.0316 18.3028 65.8056 30.1623 69.9495C31.6849 70.2348 32.2202 69.2547 32.2202 68.4482C32.2202 67.679 32.1845 63.4359 32.1845 60.8305C32.1845 60.8305 23.8579 62.6915 22.1093 57.1333C22.1093 57.1333 20.7532 53.5229 18.8024 52.5924C18.8024 52.5924 16.0784 50.6445 18.9927 50.6818C18.9927 50.6818 21.9546 50.9299 23.5843 53.8827C26.1893 58.6717 30.5548 57.2946 32.2558 56.4757C32.5294 54.4906 33.3026 53.1135 34.1591 52.2946C27.5097 51.5254 20.8008 50.5205 20.8008 38.5852C20.8008 35.1733 21.7048 33.4612 23.6081 31.2776C23.2988 30.4711 22.2877 27.1461 23.9173 22.8534C26.4034 22.047 32.125 26.2032 32.125 26.2032C34.504 25.5084 37.0615 25.1487 39.5952 25.1487C42.1288 25.1487 44.6863 25.5084 47.0653 26.2032C47.0653 26.2032 52.7869 22.0346 55.273 22.8534C56.9026 27.1585 55.8915 30.4711 55.5823 31.2776C57.4855 33.4736 58.6512 35.1857 58.6512 38.5852C58.6512 50.5577 51.645 51.513 44.9956 52.2946C46.0899 53.2748 47.0177 55.1358 47.0177 58.0514C47.0177 62.2324 46.9821 67.4061 46.9821 68.4234C46.9821 69.2299 47.5292 70.21 49.0399 69.9246C60.9351 65.8056 69 54.0316 69 40.2725C69 23.0643 55.6179 10 39.1194 10ZM21.5621 52.7909C21.4075 52.915 21.4431 53.2003 21.6454 53.4361C21.8357 53.6346 22.1093 53.7214 22.2639 53.5601C22.4185 53.4361 22.3829 53.1507 22.1806 52.915C21.9903 52.7165 21.7167 52.6296 21.5621 52.7909ZM20.2774 51.786C20.1942 51.9472 20.3131 52.1458 20.551 52.2698C20.7413 52.3939 20.9792 52.3567 21.0625 52.183C21.1458 52.0217 21.0268 51.8232 20.7889 51.6991C20.551 51.6247 20.3607 51.6619 20.2774 51.786ZM24.1315 56.2028C23.9411 56.3641 24.0125 56.7363 24.2861 56.972C24.5597 57.2573 24.9046 57.2946 25.0593 57.0961C25.2139 56.9348 25.1425 56.5626 24.9046 56.3268C24.6429 56.0415 24.2861 56.0043 24.1315 56.2028ZM22.7754 54.379C22.5851 54.503 22.5851 54.8256 22.7754 55.111C22.9657 55.3963 23.2869 55.5204 23.4415 55.3963C23.6319 55.235 23.6319 54.9125 23.4415 54.6271C23.275 54.3418 22.9657 54.2177 22.7754 54.379Z" fill="#00FDA1"/>
</g>
<defs>
<filter id="filter0_d_316_2309" x="0" y="0" width="89" height="90" filterUnits="userSpaceOnUse" color-interpolation-filters="sRGB">
<feFlood flood-opacity="0" result="BackgroundImageFix"/>
<feColorMatrix in="SourceAlpha" type="matrix" values="0 0 0 0 0 0 0 0 0 0 0 0 0 0 0 0 0 0 127 0" result="hardAlpha"/>
<feOffset dx="5" dy="5"/>
<feGaussianBlur stdDeviation="7.5"/>
<feComposite in2="hardAlpha" operator="out"/>
<feColorMatrix type="matrix" values="0 0 0 0 0 0 0 0 0 0.992157 0 0 0 0 0.631373 0 0 0 0.25 0"/>
<feBlend mode="normal" in2="BackgroundImageFix" result="effect1_dropShadow_316_2309"/>
<feBlend mode="normal" in="SourceGraphic" in2="effect1_dropShadow_316_2309" result="shape"/>
</filter>
</defs>
</svg>
