<svg width="89" height="90" viewBox="0 0 89 90" fill="none" xmlns="http://www.w3.org/2000/svg">
<g filter="url(#filter0_d_316_2310)">
<path d="M26.3889 62.5C23.7667 62.5 21.1444 59.875 19.8333 58.75C13.2778 53.5 11.3111 51.625 10 50.5V66.25C10 68.3207 11.4678 70 13.2778 70H39.5C41.3099 70 42.7778 68.3207 42.7778 66.25V50.5C41.4667 51.625 39.5 53.5 32.9444 58.75C31.6333 59.875 29.0111 62.5 26.3889 62.5ZM39.5 40H13.2778C11.4678 40 10 41.6793 10 43.75V45.625C12.6222 47.875 12.2944 47.875 21.8 55.75C22.7833 56.5 24.75 58.75 26.3889 58.75C28.0278 58.75 29.9944 56.5 30.9778 56.125C40.4833 48.25 40.1556 48.25 42.7778 46V43.75C42.7778 41.6793 41.3099 40 39.5 40ZM65.7222 28.75H32.9444C31.1345 28.75 29.6667 30.4293 29.6667 32.5V36.25H39.5C42.9017 36.25 45.7063 39.2289 46.0258 43.0258L46.0556 43V58.75H65.7222C67.5322 58.75 69 57.0707 69 55V32.5C69 30.4293 67.5322 28.75 65.7222 28.75ZM62.4444 43.75H55.8889V36.25H62.4444V43.75ZM26.3889 32.5C26.3889 28.3645 29.3297 25 32.9444 25H55.8889V13.75C55.8889 11.6793 54.4211 10 52.6111 10H19.8333C18.0234 10 16.5556 11.6793 16.5556 13.75V36.25H26.3889V32.5Z" fill="#00FDA1"/>
</g>
<defs>
<filter id="filter0_d_316_2310" x="0" y="0" width="89" height="90" filterUnits="userSpaceOnUse" color-interpolation-filters="sRGB">
<feFlood flood-opacity="0" result="BackgroundImageFix"/>
<feColorMatrix in="SourceAlpha" type="matrix" values="0 0 0 0 0 0 0 0 0 0 0 0 0 0 0 0 0 0 127 0" result="hardAlpha"/>
<feOffset dx="5" dy="5"/>
<feGaussianBlur stdDeviation="7.5"/>
<feComposite in2="hardAlpha" operator="out"/>
<feColorMatrix type="matrix" values="0 0 0 0 0 0 0 0 0 0.992157 0 0 0 0 0.631373 0 0 0 0.25 0"/>
<feBlend mode="normal" in2="BackgroundImageFix" result="effect1_dropShadow_316_2310"/>
<feBlend mode="normal" in="SourceGraphic" in2="effect1_dropShadow_316_2310" result="shape"/>
</filter>
</defs>
</svg>
