<svg width="89" height="90" viewBox="0 0 89 90" fill="none" xmlns="http://www.w3.org/2000/svg">
<g filter="url(#filter0_d_316_2308)">
<path d="M49.1423 38.5C49.1423 40.33 47.6251 41.83 45.7034 41.83C43.8154 41.83 42.2646 40.33 42.2646 38.5C42.2646 36.67 43.7817 35.17 45.7034 35.17C47.6251 35.17 49.1423 36.67 49.1423 38.5ZM33.3977 35.17C31.476 35.17 29.9589 36.67 29.9589 38.5C29.9589 40.33 31.5097 41.83 33.3977 41.83C35.3194 41.83 36.8366 40.33 36.8366 38.5C36.8703 36.67 35.3194 35.17 33.3977 35.17ZM69 16.18V70C60.5064 63.321 63.2227 65.5319 53.3566 57.37L55.1434 62.92H16.9114C13.1017 62.92 10 60.16 10 56.74V16.18C10 12.76 13.1017 10 16.9114 10H62.0886C65.8983 10 69 12.76 69 16.18ZM59.3914 44.62C59.3914 34.96 54.5366 27.13 54.5366 27.13C49.6817 23.89 45.0629 23.98 45.0629 23.98L44.5909 24.46C50.3223 26.02 52.9857 28.27 52.9857 28.27C44.9771 24.3643 35.5697 24.3636 27.8011 27.4C26.5537 27.91 25.812 28.27 25.812 28.27C25.812 28.27 28.6103 25.9 34.6789 24.34L34.3417 23.98C34.3417 23.98 29.7229 23.89 24.868 27.13C24.868 27.13 20.0131 34.96 20.0131 44.62C20.0131 44.62 22.8451 48.97 30.296 49.18C30.296 49.18 31.5434 47.83 32.5549 46.69C28.2731 45.55 26.6549 43.15 26.6549 43.15C27.1508 43.4589 27.9687 43.8593 28.0371 43.9C33.7277 46.7357 41.811 47.6648 49.0749 44.95C50.2549 44.56 51.5697 43.99 52.952 43.18C52.952 43.18 51.2663 45.64 46.8497 46.75C47.8611 47.89 49.0749 49.18 49.0749 49.18C56.5257 48.97 59.3914 44.62 59.3914 44.62Z" fill="#00FDA1"/>
</g>
<defs>
<filter id="filter0_d_316_2308" x="0" y="0" width="89" height="90" filterUnits="userSpaceOnUse" color-interpolation-filters="sRGB">
<feFlood flood-opacity="0" result="BackgroundImageFix"/>
<feColorMatrix in="SourceAlpha" type="matrix" values="0 0 0 0 0 0 0 0 0 0 0 0 0 0 0 0 0 0 127 0" result="hardAlpha"/>
<feOffset dx="5" dy="5"/>
<feGaussianBlur stdDeviation="7.5"/>
<feComposite in2="hardAlpha" operator="out"/>
<feColorMatrix type="matrix" values="0 0 0 0 0 0 0 0 0 0.992157 0 0 0 0 0.631373 0 0 0 0.25 0"/>
<feBlend mode="normal" in2="BackgroundImageFix" result="effect1_dropShadow_316_2308"/>
<feBlend mode="normal" in="SourceGraphic" in2="effect1_dropShadow_316_2308" result="shape"/>
</filter>
</defs>
</svg>
